<svg width="200" height="28" xmlns="http://www.w3.org/2000/svg" xmlns:xlink="http://www.w3.org/1999/xlink" xml:space="preserve" overflow="hidden"><defs><clipPath id="clip0"><rect x="149" y="28" width="200" height="28"/></clipPath></defs><g clip-path="url(#clip0)" transform="translate(-149 -28)"><path d="M4.59375 0.90307C4.6158 0.99617 4.03613 1.23235 3.96361 1.15983 3.9396 1.13582 3.92 1.17747 3.92 1.25244 3.92 1.34407 3.8514 1.38817 3.70979 1.38817 3.49615 1.38817 3.26683 1.5533 3.26683 1.70667 3.26683 1.75322 3.20215 1.76841 3.12375 1.74048 3.04535 1.71206 3.00517 1.71647 3.03555 1.74979 3.10513 1.8277 2.85131 2.12856 2.76213 2.07368 2.72538 2.05065 2.695 2.10749 2.695 2.2001 2.695 2.31378 2.64208 2.36817 2.53183 2.36817 2.40002 2.36817 2.36817 2.42256 2.36817 2.64845 2.36817 2.85621 2.32652 2.94245 2.20647 2.98018 2.11778 3.0086 2.04869 3.05711 2.0531 3.08798 2.0923 3.36483 2.02125 3.57945 1.87817 3.61718 1.64199 3.67892 1.62974 4.655 1.86543 4.655 1.94775 4.655 2.05751 4.56337 2.10847 4.45067 2.15943 4.33846 2.23881 4.24683 2.28487 4.24683 2.33093 4.24683 2.36817 4.11943 2.36817 3.96361 2.36817 3.76418 2.41668 3.65491 2.53183 3.59317 2.6215 3.54515 2.695 3.43098 2.695 3.33886 2.695 3.09141 4.12286 1.70275 4.59375 1.49205 4.71723 1.43717 4.81817 1.35436 4.81817 1.3083 4.81817 1.26273 4.92597 1.225 5.05778 1.225 5.39735 1.225 5.71683 1.08731 5.71683 0.94129 5.71683 0.84133 5.60266 0.81683 5.145 0.81683 4.78436 0.81683 4.58101 0.84868 4.59375 0.90307M191.018 0.9751C191.018 1.10005 191.096 1.14513 191.383 1.18825 191.584 1.21814 191.79 1.29409 191.842 1.35632 191.894 1.41904 191.982 1.47 192.037 1.47 192.092 1.47 192.216 1.53419 192.313 1.61308 192.41 1.69148 192.607 1.84779 192.751 1.96 193.341 2.41913 194.103 3.26928 194.216 3.59513 194.263 3.7289 194.33 3.83817 194.364 3.83817 194.399 3.83817 194.452 4.02192 194.481 4.24683 194.53 4.61139 194.557 4.655 194.737 4.655L194.938 4.655 194.938 13.8518C194.938 22.9545 194.937 23.0486 194.778 23.007 194.592 22.9585 194.5 23.1608 194.515 23.5813 194.522 23.763 194.488 23.8468 194.407 23.8468 194.341 23.8468 194.263 23.9478 194.232 24.0713 194.175 24.3035 193.825 24.7249 193.271 25.2296 193.095 25.3898 192.877 25.6035 192.787 25.7044 192.696 25.8059 192.592 25.8882 192.555 25.8882 192.519 25.8882 192.418 25.9529 192.331 26.0312 191.996 26.3351 191.916 26.3782 191.691 26.3782 191.115 26.3782 190.928 26.8373 191.497 26.8549 191.901 26.8677 192.032 26.8172 192.094 26.6276 192.117 26.556 192.242 26.508 192.412 26.5051 192.604 26.5021 192.692 26.4625 192.692 26.3782 192.693 26.2959 192.792 26.2473 193 26.2302 193.17 26.2165 193.289 26.1734 193.265 26.1351 193.206 26.0396 193.462 25.7931 193.559 25.8529 193.601 25.8789 193.63 25.87 193.624 25.8333 193.592 25.6491 193.647 25.5618 193.795 25.5618 193.885 25.5618 193.949 25.5172 193.938 25.4624 193.927 25.408 194 25.3257 194.101 25.2801 194.207 25.2316 194.285 25.1233 194.285 25.0243 194.285 24.9292 194.359 24.7857 194.448 24.7043 194.538 24.623 194.612 24.4824 194.612 24.3917 194.612 24.3011 194.666 24.1673 194.732 24.0938 194.799 24.0208 194.865 23.8792 194.88 23.7802 194.896 23.6807 194.951 23.5558 195.005 23.5024 195.058 23.4494 195.099 23.3485 195.096 23.2789 195.091 23.176 195.08 23.1785 195.035 23.2926 195.004 23.3696 194.979 19.137 194.979 13.8871 194.979 8.63723 194.997 4.36051 195.02 4.38256 195.043 4.4051 195.08 8.6191 195.103 13.7474L195.145 23.0707 195.144 13.6627C195.143 6.24652 195.121 4.23311 195.041 4.15275 194.984 4.0964 194.938 3.99154 194.938 3.91951 194.938 3.84748 194.849 3.66716 194.74 3.51918 194.631 3.3712 194.558 3.20558 194.579 3.15119 194.601 3.0968 194.543 2.98459 194.451 2.90178 194.36 2.81897 194.285 2.66511 194.285 2.55976 194.285 2.42256 194.238 2.36817 194.122 2.36817 193.975 2.36817 193.92 2.2834 193.949 2.10308 193.954 2.06927 193.885 2.04183 193.795 2.04183 193.69 2.04183 193.632 1.98744 193.632 1.88797 193.632 1.80271 193.559 1.715 193.468 1.69148 193.378 1.66796 193.305 1.5925 193.305 1.52341 193.305 1.43766 193.208 1.39013 192.999 1.37298 192.83 1.35877 192.705 1.31467 192.72 1.27498 192.761 1.16718 192.559 1.06428 192.304 1.06281 192.16 1.06232 192.08 1.01822 192.08 0.93933 192.08 0.8428 191.967 0.81683 191.549 0.81683 191.078 0.81683 191.018 0.83447 191.018 0.9751M81.4449 9.5305C81.2057 9.57705 80.85 10.0073 80.85 10.2503 80.85 11.0098 81.8565 11.392 82.3166 10.807 82.7037 10.3145 82.2509 9.37125 81.6815 9.48444 81.6511 9.49081 81.5443 9.51139 81.4449 9.5305M109.713 9.8343C108.998 10.1455 108.626 10.6967 108.561 11.5415 108.512 12.1775 108.412 12.3318 108.045 12.3318 107.427 12.3318 107.461 13.2795 108.085 13.4294 108.544 13.5397 108.535 13.4931 108.535 15.7672 108.535 18.2113 108.507 18.13 109.357 18.13 110.103 18.13 110.087 18.1854 110.087 15.7447 110.087 13.4054 110.054 13.525 110.715 13.4363 111.187 13.3731 111.267 13.3084 111.349 12.9291 111.428 12.5563 111.186 12.3318 110.705 12.3318 110.23 12.3318 110.087 12.1824 110.087 11.6865 110.087 11.1411 110.324 10.9241 110.919 10.9255 111.47 10.9265 111.557 10.8506 111.557 10.3664 111.557 9.82695 111.39 9.71719 110.579 9.7216 110.241 9.72307 109.851 9.77403 109.713 9.8343M163.023 9.81617C162.882 9.95778 162.882 17.8909 163.023 18.032 163.151 18.1599 164.087 18.1599 164.215 18.032 164.345 17.9031 164.357 10.1161 164.229 9.87644 164.129 9.69024 163.195 9.64369 163.023 9.81617M18.865 10.1244C15.2772 11.2715 14.7088 16.2773 17.9874 17.8487L18.5744 18.13 19.8426 18.1266C21.6962 18.1212 22.05 17.9624 22.05 17.1348 22.05 16.5527 21.9652 16.4978 21.3601 16.6889 19.2281 17.3607 17.4489 16.2538 17.4435 14.2507 17.4376 11.9692 19.0992 10.9162 21.657 11.5807 22.0177 11.6743 22.05 11.6243 22.05 10.9775 22.05 10.4605 21.9059 10.267 21.4223 10.1322 21.0641 10.0328 19.1698 10.0269 18.865 10.1244M40.1001 10.8711C39.7238 11.0216 39.6082 11.1901 39.6082 11.591 39.6082 12.0599 39.4328 12.3318 39.1294 12.3318 38.4626 12.3318 38.4013 13.1854 39.053 13.3932 39.5827 13.5622 39.6082 13.6524 39.6106 15.3777 39.6145 17.7086 39.8287 18.0683 41.2389 18.1168 42.2473 18.1521 42.385 18.0903 42.385 17.6028 42.385 17.0461 42.3385 16.9868 41.9004 16.9868 41.1943 16.9868 41.1242 16.8305 41.0934 15.188 41.0625 13.5421 41.0718 13.5152 41.6931 13.4515 42.2723 13.3917 42.385 13.2966 42.385 12.8689 42.385 12.4298 42.2777 12.3318 41.797 12.3318 41.2306 12.3318 41.0782 12.1535 41.0782 11.4905 41.0782 10.7947 40.7744 10.6021 40.1001 10.8711M84.6333 10.8991C84.3084 11.0407 84.1982 11.2435 84.1982 11.7012 84.1982 12.102 84.0232 12.3318 83.717 12.3318 83.0006 12.3318 83.0231 13.257 83.7439 13.4285 84.1673 13.5294 84.1928 13.6318 84.1957 15.2366 84.2001 17.7243 84.453 18.13 86.0004 18.13 86.8314 18.13 87.0568 18.007 87.0568 17.5528 87.0568 17.1182 86.9319 16.9868 86.5193 16.9868 85.7985 16.9868 85.7422 16.8452 85.7686 15.0984 85.7936 13.4392 85.7622 13.5186 86.4228 13.4334 86.8873 13.3736 87.0573 13.2246 87.0554 12.8772 87.0534 12.4671 86.9559 12.3872 86.4076 12.348 85.825 12.3059 85.7946 12.2696 85.7206 11.5233 85.6447 10.7653 85.3413 10.5914 84.6333 10.8991M136.914 10.8751C136.507 11.1005 136.383 11.2891 136.383 11.6865 136.383 12.1162 136.238 12.3318 135.947 12.3318 135.244 12.3318 135.242 13.3099 135.945 13.4417 136.351 13.5176 136.383 13.646 136.383 15.1807 136.383 17.6689 136.658 18.13 138.14 18.13 139.054 18.13 139.16 18.0717 139.16 17.5719 139.16 17.0951 139.061 16.9868 138.627 16.9868 137.982 16.9868 137.899 16.7962 137.868 15.2434 137.836 13.5784 137.858 13.5142 138.465 13.4515 139.047 13.3917 139.16 13.2971 139.16 12.8689 139.16 12.4298 139.053 12.3318 138.572 12.3318 138.006 12.3318 137.853 12.1535 137.853 11.4905 137.853 10.8065 137.48 10.562 136.914 10.8751M172.603 10.8589C172.222 11.0181 172.072 11.2582 172.072 11.7061 172.072 12.1848 171.976 12.3318 171.665 12.3318 170.954 12.3318 170.904 13.2878 171.608 13.4382 172.072 13.5377 172.072 13.5372 172.072 15.1263 172.072 16.8232 172.171 17.32 172.605 17.7939L172.875 18.0893 173.771 18.1168C174.628 18.1427 174.671 18.1359 174.798 17.9556 175.123 17.492 174.889 16.9373 174.384 16.9736 174.138 16.9912 174.016 16.9506 173.845 16.7913L173.623 16.586 173.625 15.1327C173.626 13.4481 173.603 13.5142 174.227 13.451 174.794 13.3941 174.848 13.3525 174.905 12.9277 174.963 12.4891 174.798 12.3318 174.277 12.3318 173.737 12.3318 173.623 12.202 173.623 11.5856 173.623 10.8163 173.283 10.5737 172.603 10.8589M23.373 12.4298C23.2329 12.57 23.2329 17.8919 23.373 18.032 23.4279 18.0869 23.6915 18.13 23.9728 18.13 24.7376 18.13 24.745 18.1138 24.7455 16.4493 24.746 14.3423 25.1052 13.6485 26.1469 13.743 26.7148 13.7945 26.7868 13.7195 26.7868 13.0722 26.7868 12.326 25.9406 12.0388 25.2776 12.5607 24.992 12.7851 24.9738 12.7846 24.6784 12.5357 24.4079 12.3083 23.5631 12.2397 23.373 12.4298M28.6229 12.5195C26.5997 13.4833 26.4448 16.7786 28.371 17.8806 29.1491 18.3255 31.2375 18.2334 31.7167 17.7326 32.3096 17.1137 31.8897 16.5287 31.0841 16.8511 29.8836 17.3318 28.519 16.8001 28.6018 15.8843L28.6243 15.6393 30.3878 15.5982C32.342 15.5531 32.4218 15.5315 32.4218 15.0533 32.4218 14.0944 31.9612 13.1011 31.3066 12.6479 30.7563 12.2667 29.3 12.1971 28.6229 12.5195M34.2637 12.4504C33.6797 12.6641 33.5268 12.8311 33.4998 13.2864 33.4626 13.9136 33.59 13.9679 34.3211 13.6367 35.3491 13.1717 36.1346 13.3388 36.357 14.0699 36.482 14.4815 36.4168 14.531 35.6392 14.6147 33.5121 14.8431 32.6619 15.654 33.026 17.1064 33.2573 18.0271 34.8326 18.4774 35.8763 17.9218L36.2678 17.7135 36.5153 17.9218C36.7897 18.153 37.6041 18.2231 37.7952 18.032 37.8667 17.9609 37.8927 17.3646 37.8907 15.8476L37.8883 13.7607 37.6663 13.3182C37.2199 12.4279 35.5142 11.9928 34.2637 12.4504M44.5567 12.5357C43.4223 13.1394 42.9975 13.8846 42.9975 15.2733 42.9975 17.2627 43.8477 18.13 45.7974 18.13 47.5305 18.13 48.2082 17.6954 47.8652 16.8031L47.7789 16.5787 47.1032 16.8295C45.7876 17.3181 44.4151 16.8085 44.5229 15.8711L44.5493 15.6393 46.3128 15.5982C48.4497 15.5487 48.387 15.5761 48.3223 14.723 48.243 13.6725 47.773 12.8924 46.9993 12.5264 46.3893 12.2378 45.1079 12.2431 44.5567 12.5357M52.53 12.4587C52.3487 12.5857 52.3482 12.5906 52.3482 15.2228 52.3482 18.2868 52.3055 18.13 53.141 18.13 53.7986 18.13 53.7883 18.1555 53.8481 16.4273 53.9211 14.3154 54.2753 13.6431 55.2622 13.745 55.786 13.7989 55.86 13.7122 55.86 13.0438 55.86 12.3225 55.0216 12.031 54.4508 12.5538 54.1969 12.7856 53.9 12.8699 53.9 12.7091 53.9 12.497 53.5609 12.3318 53.1243 12.3318 52.8828 12.3318 52.6358 12.3843 52.53 12.4587M57.7534 12.4906C55.6209 13.4853 55.4753 16.8805 57.5216 17.9159 57.9665 18.1413 57.9984 18.1447 59.1494 18.1173 60.6527 18.0815 61.005 17.9149 61.005 17.2407 61.005 16.6546 60.9001 16.6071 60.1681 16.8594 58.872 17.3068 57.6568 16.8202 57.6568 15.854L57.6568 15.5982 59.2694 15.5977C60.1568 15.5977 61.0202 15.559 61.1888 15.5124L61.495 15.4272 61.495 14.9705C61.495 13.9694 61.0462 13.0605 60.3205 12.5935 59.8511 12.2916 58.3134 12.2299 57.7534 12.4906M62.6382 12.4117C62.498 12.4999 62.4054 19.9205 62.5382 20.4345L62.6073 20.7025 63.1953 20.7265C63.9406 20.7569 63.945 20.7476 63.945 19.1085 63.945 17.687 63.9832 17.6126 64.5482 17.936 65.0166 18.204 66.2309 18.2172 66.7356 17.9595 68.5927 17.0118 68.6691 13.3256 66.8492 12.4622 66.2941 12.1986 65.0705 12.3 64.5648 12.6508L64.1635 12.9291 63.9239 12.6307C63.6735 12.3181 62.9748 12.199 62.6382 12.4117M70.8731 12.4078C68.5324 13.156 68.3011 16.7565 70.5183 17.9168 71.1225 18.2324 72.7243 18.2363 73.3422 17.9227 75.3473 16.907 75.5026 13.719 73.6014 12.6087 73.1884 12.3676 71.4087 12.2363 70.8731 12.4078M77.1343 12.3848C76.439 12.5425 75.7868 13.3187 75.7868 13.9885 75.7863 14.7941 76.1803 15.2072 77.4425 15.7246 78.3731 16.1063 78.6225 16.3925 78.3662 16.7835 78.0889 17.2064 77.3181 17.2372 76.4895 16.8575 75.7903 16.5375 75.4409 17.2289 75.9838 17.86 76.2984 18.2265 78.2991 18.2584 78.9704 17.9075 80.6202 17.0456 80.2855 15.4953 78.2765 14.6961 77.3063 14.31 77.0834 14.0375 77.4327 13.6656 77.7517 13.326 78.1599 13.2599 78.8577 13.4334 79.577 13.6127 79.6657 13.5676 79.6657 13.0247 79.6657 12.4308 79.5535 12.3745 78.3363 12.3603 77.765 12.3534 77.224 12.3647 77.1343 12.3848M81.0744 12.42C80.8417 12.5553 80.8564 17.9208 81.0896 18.0452 81.3067 18.1614 82.102 18.1521 82.222 18.032 82.4136 17.8404 82.3568 12.5205 82.1622 12.4161 81.9608 12.3083 81.2616 12.3108 81.0744 12.42M89.18 12.5411C86.9686 13.5652 87.0348 17.0652 89.2829 18.0046 89.8283 18.2324 91.4085 18.179 91.9299 17.9154 94.1158 16.809 94.1074 13.5039 91.9157 12.4867 91.3732 12.2348 89.7724 12.2667 89.18 12.5411M94.8331 12.4587C94.6518 12.5857 94.6518 12.5906 94.6518 15.2228 94.6518 18.2868 94.6092 18.13 95.4442 18.13 96.1047 18.13 96.0939 18.1569 96.1458 16.3743 96.2076 14.2453 96.5476 13.622 97.5811 13.7445 98.098 13.8057 98.1632 13.7278 98.1632 13.0531 98.1632 12.2583 97.4693 12.0496 96.6638 12.6023L96.3477 12.8189 96.1204 12.5754C95.8528 12.2892 95.1644 12.227 94.8331 12.4587M98.6973 12.4421C98.5233 12.569 98.5282 12.593 98.9251 13.5568 99.0824 13.9385 99.3078 14.5079 99.4264 14.8225 99.545 15.1371 99.6748 15.4678 99.715 15.5575 99.7552 15.6472 99.8821 15.9691 99.9967 16.2719 100.111 16.5752 100.297 17.0593 100.409 17.3475 100.85 18.4794 100.35 19.5167 99.3617 19.5196 98.7889 19.5211 98.7076 19.5892 98.7002 20.0704 98.6914 20.6584 98.7958 20.7432 99.5288 20.7432 100.758 20.7432 101.409 20.1174 102.121 18.2525 102.241 17.9379 102.391 17.5523 102.454 17.395 102.563 17.1211 103.527 14.5814 103.941 13.475 104.319 12.4666 104.271 12.3318 103.533 12.3318 102.885 12.3318 102.888 12.3279 102.247 14.2492 101.443 16.6634 101.456 16.6634 100.671 14.2144 100.18 12.6832 100.094 12.4798 99.911 12.4102 99.6082 12.2951 98.8717 12.3142 98.6973 12.4421M112.093 12.4602C111.982 12.5714 111.965 12.937 111.965 15.2238 111.965 18.2883 111.921 18.13 112.762 18.13 113.517 18.13 113.517 18.1315 113.517 16.486 113.517 15.0597 113.59 14.5363 113.828 14.2492 114.211 13.7891 114.773 13.5999 115.152 13.8028 115.513 13.9959 115.723 12.8498 115.399 12.4592 115.19 12.2074 114.492 12.2912 114.062 12.619L113.686 12.9066 113.564 12.6704C113.381 12.3171 112.38 12.1741 112.093 12.4602M117.377 12.5768C115.849 13.3461 115.336 15.3698 116.265 16.9594 117.088 18.3672 119.728 18.6077 120.992 17.3906 122.231 16.1979 122.007 13.6558 120.578 12.6993L120.091 12.3725 118.988 12.3465C117.892 12.3206 117.883 12.3215 117.377 12.5768M122.925 12.4298C122.852 12.5019 122.827 13.2305 122.827 15.2003 122.827 18.279 122.79 18.131 123.547 18.1285 124.284 18.1266 124.25 18.2118 124.297 16.2342 124.348 14.0723 124.596 13.475 125.44 13.475 126.234 13.475 126.41 13.9547 126.416 16.1372 126.421 18.1638 126.407 18.13 127.213 18.13 127.889 18.13 127.874 18.1702 127.904 16.2509 127.936 14.2654 128.147 13.6749 128.881 13.5132 129.799 13.3118 130.029 13.8214 130.078 16.17 130.119 18.1648 130.107 18.13 130.746 18.13 131.52 18.13 131.505 18.18 131.471 15.7461 131.43 12.7503 131.212 12.3725 129.53 12.3725L128.666 12.3725 128.196 12.7292 127.727 13.0864 127.257 12.7297C126.626 12.2505 125.748 12.1741 124.992 12.5318L124.534 12.7483 124.287 12.5401C124.011 12.3078 123.119 12.2353 122.925 12.4298M141.316 12.5425C139.689 13.3995 139.195 15.7643 140.333 17.2509 141.3 18.5151 144.713 18.4941 144.713 17.2235 144.713 16.6247 144.609 16.5645 143.985 16.7987 143.187 17.0981 142.953 17.1407 142.573 17.0554 141.827 16.8878 141.243 16.3454 141.298 15.8701L141.324 15.6393 143.148 15.5982C145.434 15.5472 145.302 15.6423 145.047 14.2399 144.897 13.4103 144.245 12.5994 143.58 12.4146 142.959 12.2427 141.757 12.3103 141.316 12.5425M146.2 12.4298C146.059 12.57 146.059 17.8919 146.2 18.032 146.332 18.1638 147.282 18.1609 147.389 18.0281 147.436 17.9698 147.487 17.1863 147.507 16.2107 147.552 14.0101 147.714 13.6205 148.632 13.4975 148.94 13.4564 148.988 13.4779 149.289 13.794L149.613 14.135 149.613 16.0054C149.613 18.178 149.595 18.13 150.435 18.13 151.166 18.13 151.165 18.1339 151.165 16.1592L151.165 14.4869 151.409 14.1027C151.746 13.5705 152.113 13.3995 152.573 13.5603 153.193 13.7773 153.243 13.9572 153.275 16.0882 153.306 18.1922 153.285 18.13 153.98 18.13 154.764 18.13 154.759 18.1418 154.756 16.2455 154.752 13.6661 154.605 13.0683 153.854 12.5636 153.236 12.1481 152.047 12.2353 151.407 12.7424 151.029 13.0418 150.764 13.0502 150.505 12.7704 150.087 12.3162 148.809 12.151 148.266 12.4808 147.836 12.742 147.647 12.7537 147.472 12.5313 147.295 12.3063 146.395 12.2343 146.2 12.4298M156.193 12.4602C156.021 12.6322 155.999 20.1596 156.17 20.4982 156.262 20.6795 156.332 20.7054 156.8 20.7275 157.53 20.7618 157.535 20.7505 157.535 19.2271 157.535 17.7547 157.567 17.6856 158.13 17.9585 159.08 18.4181 160.361 18.1403 161.061 17.323 162.306 15.8672 161.773 12.6935 160.23 12.3848 159.59 12.2569 158.72 12.3245 158.304 12.5357 157.804 12.7895 157.722 12.7895 157.487 12.5357 157.255 12.2853 156.417 12.2358 156.193 12.4602M166.606 12.5293C166.078 12.7576 165.947 12.9144 165.947 13.3216 165.947 13.892 166.103 13.9532 166.783 13.648 167.933 13.1315 168.724 13.3221 168.858 14.1473 168.916 14.5064 168.874 14.5324 168.089 14.6128 166.158 14.8117 165.364 15.4654 165.48 16.7609 165.588 17.9551 167.062 18.5573 168.351 17.933L168.755 17.7375 169.012 17.9335C169.327 18.1736 170.098 18.2143 170.31 18.0016 170.682 17.6297 170.442 13.5681 170.015 13.0262 169.445 12.301 167.718 12.0496 166.606 12.5293M177.341 12.3916C175.052 12.9713 174.787 16.8521 176.96 17.9609 177.516 18.2442 179.315 18.2109 179.917 17.9056L180.361 17.6807 180.382 17.2318C180.414 16.5517 180.373 16.5297 179.619 16.8261 178.456 17.2828 177.431 17.0295 177.084 16.1984 176.845 15.6261 176.918 15.5996 178.751 15.5903 180.854 15.5796 180.763 15.6099 180.793 14.9097 180.875 13.0404 179.304 11.8943 177.341 12.3916M30.4368 13.5784C30.7225 13.7739 30.9023 14.1037 30.8558 14.3462 30.8293 14.4824 30.7279 14.4957 29.7254 14.4957L28.6243 14.4957 28.6405 14.2507C28.689 13.5284 29.7709 13.1232 30.4368 13.5784M46.377 13.5666C46.6108 13.7504 46.8768 14.1586 46.8768 14.333 46.8768 14.5094 46.6147 14.5457 45.5293 14.5197L44.5493 14.4957 44.566 14.26C44.6174 13.5475 45.7846 13.1006 46.377 13.5666M59.3483 13.4833C59.7065 13.6568 59.902 13.9175 59.9554 14.2918L59.9843 14.4957 58.8421 14.4957C57.5466 14.4957 57.4579 14.4452 57.8504 13.9307 58.2664 13.3853 58.8103 13.2231 59.3483 13.4833M143.169 13.575C143.424 13.7636 143.702 14.356 143.588 14.4697 143.548 14.5094 143.023 14.5314 142.42 14.5187L141.324 14.4957 141.345 14.3036C141.429 13.5358 142.524 13.0982 143.169 13.575M178.638 13.4255C178.982 13.5691 179.362 14.0561 179.326 14.3075 179.299 14.4937 179.286 14.4957 178.197 14.4957L177.094 14.4957 177.07 14.2904C177.005 13.7352 178.028 13.1707 178.638 13.4255M65.8315 13.5676C66.665 13.8464 66.983 15.2758 66.443 16.3195 66.2093 16.7707 65.5022 17.1451 65.1176 17.0211 64.2321 16.7345 63.8838 16.1636 63.9666 15.1341 64.0646 13.9126 64.8613 13.2432 65.8315 13.5676M72.6552 13.6328C73.6896 14.1027 73.7352 16.2264 72.7224 16.8001 71.882 17.2759 70.9035 16.8913 70.5433 15.9431 69.9686 14.43 71.2715 13.0046 72.6552 13.6328M91.0665 13.5681C92.3488 13.9973 92.4169 16.3405 91.163 16.8746 90.0336 17.3558 89.0575 16.5939 89.0575 15.2307 89.0575 13.8905 89.9135 13.182 91.0665 13.5681M119.563 13.6588C120.584 14.1737 120.609 16.2283 119.601 16.7992 118.613 17.3582 117.44 16.711 117.301 15.5296 117.123 14.0336 118.329 13.0365 119.563 13.6588M159.481 13.6014C160.583 14.0424 160.574 16.2724 159.468 16.8369 158.477 17.3426 157.621 16.7335 157.551 15.4737 157.468 13.988 158.338 13.1443 159.481 13.6014M36.4295 15.8162C36.6055 16.294 35.8391 17.0643 35.184 17.0672 34.5916 17.0696 34.1839 16.4718 34.4916 16.0504 34.8047 15.6227 36.2923 15.4428 36.4295 15.8162M168.889 15.7657C169.065 16.0941 168.706 16.7056 168.177 16.9765 167.541 17.3039 166.686 16.7502 166.928 16.1671 167.126 15.6893 168.678 15.3713 168.889 15.7657M1.76939 23.0026C1.64248 23.13 1.71745 23.7675 1.87817 23.9282 1.96833 24.0183 2.04183 24.1261 2.04183 24.1678 2.04183 24.2099 2.11533 24.2673 2.205 24.2957 2.34857 24.3412 2.42109 24.5735 2.37797 24.8469 2.37258 24.8807 2.40492 24.9082 2.45 24.9082 2.49508 24.9082 2.53183 24.9474 2.53183 24.9949 2.53183 25.0424 2.49508 25.0586 2.45 25.0307 2.31721 24.9488 2.3569 25.0424 2.50635 25.1639 2.58524 25.2277 2.62003 25.2345 2.58671 25.1796 2.55486 25.1262 2.56613 25.0601 2.61219 25.0317 2.65923 25.0023 2.695 25.0635 2.695 25.1728 2.695 25.4222 2.83857 25.5609 3.09925 25.5643 3.28153 25.5662 3.28937 25.577 3.16295 25.651 2.99047 25.751 3.05074 25.8882 3.26683 25.8882 3.3516 25.8882 3.47508 25.9661 3.54172 26.0611 3.63678 26.1969 3.72645 26.2268 3.95626 26.1998 4.14001 26.1787 4.23752 26.1979 4.21743 26.2518 4.19979 26.2988 4.14148 26.3272 4.08758 26.315 4.03368 26.3027 4.0131 26.3306 4.04201 26.3777 4.07092 26.4242 4.12874 26.4414 4.17088 26.4159 4.21253 26.3899 4.24683 26.4076 4.24683 26.4551 4.24683 26.5026 4.3071 26.5418 4.3806 26.5418 4.4541 26.5418 4.55994 26.6041 4.6158 26.68 4.69028 26.7819 4.8657 26.8251 5.27828 26.8432 5.58649 26.8569 5.78396 26.8407 5.71683 26.8069 5.64921 26.7736 5.59433 26.6967 5.59433 26.6364 5.59433 26.5306 4.98281 26.263 4.98036 26.3674 4.97987 26.3958 4.95194 26.3816 4.91911 26.336 4.88628 26.29 4.76721 26.2057 4.655 26.1489 4.21155 25.9239 4.05769 25.8137 3.79015 25.53 3.63727 25.3678 3.47508 25.235 3.43 25.235 3.38492 25.235 3.34817 25.2056 3.34817 25.1698 3.34817 25.1341 3.20117 24.9518 3.02183 24.7646 2.842 24.5774 2.69402 24.3956 2.69304 24.3603 2.69206 24.3246 2.61954 24.204 2.53183 24.0918 2.44363 23.9796 2.37111 23.8071 2.37013 23.7096 2.3667 23.3475 1.93354 22.8384 1.76939 23.0026" fill="#E9F6EF" fill-rule="evenodd" transform="matrix(1.01786 0 0 1 149.25 28)"/><path d="M5.71683 0.94129C5.71683 1.08731 5.39735 1.225 5.05778 1.225 4.92597 1.225 4.81817 1.26273 4.81817 1.3083 4.81817 1.35436 4.71723 1.43717 4.59375 1.49205 4.12286 1.70275 2.695 3.09141 2.695 3.33886 2.695 3.43098 2.6215 3.54515 2.53183 3.59317 2.41668 3.65491 2.36817 3.76418 2.36817 3.96361 2.36817 4.11943 2.33093 4.24683 2.28487 4.24683 2.23881 4.24683 2.15943 4.33846 2.10847 4.45067 2.05751 4.56337 1.94775 4.655 1.86543 4.655 1.72039 4.655 1.715 4.97644 1.715 13.8347 1.715 22.5356 1.72235 23.0128 1.85808 22.982 2.02517 22.9438 2.36719 23.4298 2.37013 23.7096 2.37111 23.8071 2.44363 23.9796 2.53183 24.0918 2.61954 24.204 2.69206 24.3246 2.69304 24.3603 2.69402 24.3956 2.842 24.5774 3.02183 24.7646 3.20117 24.9518 3.34817 25.1341 3.34817 25.1698 3.34817 25.2056 3.38492 25.235 3.43 25.235 3.47508 25.235 3.63727 25.3678 3.79015 25.53 4.05769 25.8137 4.21155 25.9239 4.655 26.1489 4.76721 26.2057 4.88628 26.29 4.91911 26.336 4.95194 26.3816 4.97987 26.3958 4.98036 26.3674 4.98134 26.339 5.11952 26.364 5.28808 26.4233 5.47526 26.4884 5.58992 26.5791 5.58306 26.6565 5.5762 26.7378 5.66342 26.7991 5.82806 26.828 6.45134 26.9387 191.141 26.8295 191.141 26.7187 191.141 26.556 191.427 26.3782 191.691 26.3782 191.916 26.3782 191.996 26.3351 192.331 26.0312 192.418 25.9529 192.519 25.8882 192.555 25.8882 192.592 25.8882 192.696 25.8059 192.787 25.7044 192.877 25.6035 193.095 25.3898 193.271 25.2296 193.825 24.7249 194.175 24.3035 194.232 24.0713 194.263 23.9478 194.341 23.8468 194.407 23.8468 194.488 23.8468 194.522 23.763 194.515 23.5813 194.5 23.1608 194.592 22.9585 194.778 23.007 194.937 23.0486 194.938 22.9545 194.938 13.8518L194.938 4.655 194.737 4.655C194.557 4.655 194.53 4.61139 194.481 4.24683 194.452 4.02192 194.399 3.83817 194.364 3.83817 194.33 3.83817 194.263 3.7289 194.216 3.59513 194.103 3.26928 193.341 2.41913 192.751 1.96 192.607 1.84779 192.41 1.69148 192.313 1.61308 192.216 1.53419 192.092 1.47 192.037 1.47 191.982 1.47 191.894 1.41904 191.842 1.35632 191.79 1.29409 191.584 1.21814 191.383 1.18825 191.096 1.14513 191.018 1.10005 191.018 0.9751 191.018 0.8183 189.988 0.81683 98.3675 0.81683 15.3973 0.81683 5.71683 0.82957 5.71683 0.94129M194.997 13.8984C195.01 20.8299 194.99 23.4984 194.924 23.5773 194.853 23.6631 194.863 23.6758 194.968 23.6356 195.042 23.6072 195.102 23.542 195.103 23.4911 195.137 20.7603 195.127 4.36982 195.091 4.42715 195.057 4.48154 195.029 4.47909 195.01 4.41931 194.993 4.36933 194.987 8.63478 194.997 13.8984M81.9393 9.5501C82.4665 9.75051 82.6547 10.3772 82.3166 10.807 81.8565 11.392 80.85 11.0098 80.85 10.2503 80.85 10.0073 81.2057 9.57705 81.4449 9.5305 81.5443 9.51139 81.6511 9.49081 81.6815 9.48444 81.7124 9.47856 81.8285 9.50796 81.9393 9.5501M111.375 9.84557C111.52 9.947 111.557 10.0519 111.557 10.3664 111.557 10.8506 111.47 10.9265 110.919 10.9255 110.324 10.9241 110.087 11.1411 110.087 11.6865 110.087 12.1824 110.23 12.3318 110.705 12.3318 111.186 12.3318 111.428 12.5563 111.349 12.9291 111.267 13.3084 111.187 13.3731 110.715 13.4363 110.054 13.525 110.087 13.4054 110.087 15.7447 110.087 18.1854 110.103 18.13 109.357 18.13 108.507 18.13 108.535 18.2113 108.535 15.7672 108.535 13.4931 108.544 13.5397 108.085 13.4294 107.461 13.2795 107.427 12.3318 108.045 12.3318 108.412 12.3318 108.512 12.1775 108.561 11.5415 108.626 10.6967 108.998 10.1455 109.713 9.8343 110.073 9.6775 111.146 9.68485 111.375 9.84557M164.229 9.87644C164.357 10.1161 164.345 17.9031 164.215 18.032 164.087 18.1599 163.151 18.1599 163.023 18.032 162.882 17.8909 162.882 9.95778 163.023 9.81617 163.195 9.64369 164.129 9.69024 164.229 9.87644M21.4223 10.1322C21.9059 10.267 22.05 10.4605 22.05 10.9775 22.05 11.6243 22.0177 11.6743 21.657 11.5807 19.0992 10.9162 17.4376 11.9692 17.4435 14.2507 17.4489 16.2538 19.2281 17.3607 21.3601 16.6889 21.9652 16.4978 22.05 16.5527 22.05 17.1348 22.05 17.9624 21.6962 18.1212 19.8426 18.1266L18.5744 18.13 17.9874 17.8487C14.7088 16.2773 15.2772 11.2715 18.865 10.1244 19.1698 10.0269 21.0641 10.0328 21.4223 10.1322M40.9802 10.878C41.036 10.9334 41.0782 11.1994 41.0782 11.4905 41.0782 12.1535 41.2306 12.3318 41.797 12.3318 42.2777 12.3318 42.385 12.4298 42.385 12.8689 42.385 13.2966 42.2723 13.3917 41.6931 13.4515 41.0718 13.5152 41.0625 13.5421 41.0934 15.188 41.1242 16.8305 41.1943 16.9868 41.9004 16.9868 42.3385 16.9868 42.385 17.0461 42.385 17.6028 42.385 18.0903 42.2473 18.1521 41.2389 18.1168 39.8287 18.0683 39.6145 17.7086 39.6106 15.3777 39.6082 13.6524 39.5827 13.5622 39.053 13.3932 38.4013 13.1854 38.4626 12.3318 39.1294 12.3318 39.4328 12.3318 39.6082 12.0599 39.6082 11.591 39.6082 10.977 40.5764 10.4738 40.9802 10.878M85.5765 10.8903C85.627 10.951 85.6917 11.2362 85.7206 11.5233 85.7946 12.2696 85.825 12.3059 86.4076 12.348 86.9559 12.3872 87.0534 12.4671 87.0554 12.8772 87.0573 13.2246 86.8873 13.3736 86.4228 13.4334 85.7622 13.5186 85.7936 13.4392 85.7686 15.0984 85.7422 16.8452 85.7985 16.9868 86.5193 16.9868 86.9319 16.9868 87.0568 17.1182 87.0568 17.5528 87.0568 18.007 86.8314 18.13 86.0004 18.13 84.453 18.13 84.2001 17.7243 84.1957 15.2366 84.1928 13.6318 84.1673 13.5294 83.7439 13.4285 83.0231 13.257 83.0006 12.3318 83.717 12.3318 84.0232 12.3318 84.1982 12.102 84.1982 11.7012 84.1982 10.9917 85.1811 10.414 85.5765 10.8903M137.755 10.878C137.811 10.9334 137.853 11.1994 137.853 11.4905 137.853 12.1535 138.006 12.3318 138.572 12.3318 139.053 12.3318 139.16 12.4298 139.16 12.8689 139.16 13.2971 139.047 13.3917 138.465 13.4515 137.858 13.5142 137.836 13.5784 137.868 15.2434 137.899 16.7962 137.982 16.9868 138.627 16.9868 139.061 16.9868 139.16 17.0951 139.16 17.5719 139.16 18.0717 139.054 18.13 138.14 18.13 136.658 18.13 136.383 17.6689 136.383 15.1807 136.383 13.646 136.351 13.5176 135.945 13.4417 135.242 13.3099 135.244 12.3318 135.947 12.3318 136.238 12.3318 136.383 12.1162 136.383 11.6865 136.383 11.0309 137.343 10.4654 137.755 10.878M173.539 10.9378C173.585 11.025 173.623 11.3161 173.623 11.5856 173.623 12.202 173.737 12.3318 174.277 12.3318 174.798 12.3318 174.963 12.4891 174.905 12.9277 174.848 13.3525 174.794 13.3941 174.227 13.451 173.603 13.5142 173.626 13.4481 173.625 15.1327L173.623 16.586 173.845 16.7913C174.016 16.9506 174.138 16.9912 174.384 16.9736 174.889 16.9373 175.123 17.492 174.798 17.9556 174.671 18.1359 174.628 18.1427 173.771 18.1168L172.875 18.0893 172.605 17.7939C172.171 17.32 172.072 16.8232 172.072 15.1263 172.072 13.5372 172.072 13.5377 171.608 13.4382 170.904 13.2878 170.954 12.3318 171.665 12.3318 171.976 12.3318 172.072 12.1848 172.072 11.7061 172.072 11.0887 172.402 10.7957 173.11 10.7854 173.37 10.7815 173.475 10.8187 173.539 10.9378M24.6784 12.5357C24.9738 12.7846 24.992 12.7851 25.2776 12.5607 25.9406 12.0388 26.7868 12.326 26.7868 13.0722 26.7868 13.7195 26.7148 13.7945 26.1469 13.743 25.1052 13.6485 24.746 14.3423 24.7455 16.4493 24.745 18.1138 24.7376 18.13 23.9728 18.13 23.6915 18.13 23.4279 18.0869 23.373 18.032 23.2329 17.8919 23.2329 12.57 23.373 12.4298 23.5631 12.2397 24.4079 12.3083 24.6784 12.5357M31.3066 12.6479C31.9612 13.1011 32.4218 14.0944 32.4218 15.0533 32.4218 15.5315 32.342 15.5531 30.3878 15.5982L28.6243 15.6393 28.6018 15.8843C28.519 16.8001 29.8836 17.3318 31.0841 16.8511 31.7393 16.5889 31.8789 16.6389 31.9166 17.1485 32.0127 18.4627 28.7493 18.5823 27.6556 17.3043 26.7525 16.2499 26.8437 14.0841 27.832 13.0957 28.6851 12.2427 30.4021 12.0212 31.3066 12.6479M37.0896 12.6239C37.3199 12.7875 37.5217 13.0306 37.6663 13.3182L37.8883 13.7607 37.8907 15.8476C37.8927 17.3646 37.8667 17.9609 37.7952 18.032 37.6041 18.2231 36.7897 18.153 36.5153 17.9218L36.2678 17.7135 35.8763 17.9218C34.8326 18.4774 33.2573 18.0271 33.026 17.1064 32.6619 15.654 33.5121 14.8431 35.6392 14.6147 36.4168 14.531 36.482 14.4815 36.357 14.0699 36.1346 13.3388 35.3491 13.1717 34.3211 13.6367 33.59 13.9679 33.4626 13.9136 33.4998 13.2864 33.5434 12.5558 34.0815 12.323 35.6602 12.3524 36.7147 12.372 36.7412 12.3774 37.0896 12.6239M46.9993 12.5264C47.773 12.8924 48.243 13.6725 48.3223 14.723 48.387 15.5761 48.4497 15.5487 46.3128 15.5982L44.5493 15.6393 44.5229 15.8711C44.4151 16.8085 45.7876 17.3181 47.1032 16.8295L47.7789 16.5787 47.8652 16.8031C48.4042 18.2059 45.0883 18.7597 43.7482 17.491 42.657 16.4576 42.7383 13.8832 43.8908 12.9644 44.7542 12.277 46.0767 12.0903 46.9993 12.5264M53.7187 12.4587C53.8182 12.5288 53.9 12.6415 53.9 12.7091 53.9 12.8699 54.1969 12.7856 54.4508 12.5538 55.0216 12.031 55.86 12.3225 55.86 13.0438 55.86 13.7122 55.786 13.7989 55.2622 13.745 54.2753 13.6431 53.9211 14.3154 53.8481 16.4273 53.7883 18.1555 53.7986 18.13 53.141 18.13 52.3055 18.13 52.3482 18.2868 52.3482 15.2228 52.3482 12.1937 52.3114 12.3318 53.1243 12.3318 53.3654 12.3318 53.6124 12.3843 53.7187 12.4587M60.3205 12.5935C61.0462 13.0605 61.495 13.9694 61.495 14.9705L61.495 15.4272 61.1888 15.5124C61.0202 15.559 60.1568 15.5977 59.2694 15.5977L57.6568 15.5982 57.6568 15.854C57.6568 16.8202 58.872 17.3068 60.1681 16.8594 60.9001 16.6071 61.005 16.6546 61.005 17.2407 61.005 17.9149 60.6527 18.0815 59.1494 18.1173 57.9984 18.1447 57.9665 18.1413 57.5216 17.9159 55.4753 16.8805 55.6209 13.4853 57.7534 12.4906 58.3134 12.2299 59.8511 12.2916 60.3205 12.5935M63.9239 12.6307 64.1635 12.9291 64.5648 12.6508C65.0705 12.3 66.2941 12.1986 66.8492 12.4622 68.6691 13.3256 68.5927 17.0118 66.7356 17.9595 66.2309 18.2172 65.0166 18.204 64.5482 17.936 63.9832 17.6126 63.945 17.687 63.945 19.1085 63.945 20.7476 63.9406 20.7569 63.1953 20.7265L62.6073 20.7025 62.5382 20.4345C62.4054 19.9205 62.498 12.4999 62.6382 12.4117 62.9748 12.199 63.6735 12.3181 63.9239 12.6307M73.6014 12.6087C75.5026 13.719 75.3473 16.907 73.3422 17.9227 72.7243 18.2363 71.1225 18.2324 70.5183 17.9168 68.3011 16.7565 68.5324 13.156 70.8731 12.4078 71.4087 12.2363 73.1884 12.3676 73.6014 12.6087M79.5201 12.5185C79.6157 12.6141 79.6657 12.788 79.6657 13.0247 79.6657 13.5676 79.577 13.6127 78.8577 13.4334 78.1599 13.2599 77.7517 13.326 77.4327 13.6656 77.0834 14.0375 77.3063 14.31 78.2765 14.6961 80.2855 15.4953 80.6202 17.0456 78.9704 17.9075 78.2991 18.2584 76.2984 18.2265 75.9838 17.86 75.4409 17.2289 75.7903 16.5375 76.4895 16.8575 77.3181 17.2372 78.0889 17.2064 78.3662 16.7835 78.6225 16.3925 78.3731 16.1063 77.4425 15.7246 76.1803 15.2072 75.7863 14.7941 75.7868 13.9885 75.7868 13.3187 76.439 12.5425 77.1343 12.3848 77.6126 12.2765 79.3771 12.3749 79.5201 12.5185M82.1622 12.4161C82.3568 12.5205 82.4136 17.8404 82.222 18.032 82.102 18.1521 81.3067 18.1614 81.0896 18.0452 80.8564 17.9208 80.8417 12.5553 81.0744 12.42 81.2616 12.3108 81.9608 12.3083 82.1622 12.4161M91.9157 12.4867C93.4278 13.1884 94.0075 15.1229 93.1877 16.7296 92.1999 18.6666 88.8488 18.668 87.8815 16.732 87.3381 15.6452 87.562 13.8949 88.3421 13.1305 89.1379 12.35 90.9268 12.028 91.9157 12.4867M96.1204 12.5754 96.3477 12.8189 96.6638 12.6023C97.4693 12.0496 98.1632 12.2583 98.1632 13.0531 98.1632 13.7278 98.098 13.8057 97.5811 13.7445 96.5476 13.622 96.2076 14.2453 96.1458 16.3743 96.0939 18.1569 96.1047 18.13 95.4442 18.13 94.6092 18.13 94.6518 18.2868 94.6518 15.2228 94.6518 12.1829 94.6102 12.3318 95.454 12.3318 95.8357 12.3318 95.9224 12.3632 96.1204 12.5754M99.911 12.4102C100.094 12.4798 100.18 12.6832 100.671 14.2144 101.456 16.6634 101.443 16.6634 102.247 14.2492 102.888 12.3279 102.885 12.3318 103.533 12.3318 104.271 12.3318 104.319 12.4666 103.941 13.475 103.527 14.5814 102.563 17.1211 102.454 17.395 102.391 17.5523 102.241 17.9379 102.121 18.2525 101.409 20.1174 100.758 20.7432 99.5288 20.7432 98.7958 20.7432 98.6914 20.6584 98.7002 20.0704 98.7076 19.5892 98.7889 19.5211 99.3617 19.5196 100.35 19.5167 100.85 18.4794 100.409 17.3475 100.297 17.0593 100.111 16.5752 99.9967 16.2719 99.8821 15.9691 99.7552 15.6472 99.715 15.5575 99.6748 15.4678 99.545 15.1371 99.4264 14.8225 99.3078 14.5079 99.0824 13.9385 98.9251 13.5568 98.5282 12.593 98.5233 12.569 98.6973 12.4421 98.8717 12.3142 99.6082 12.2951 99.911 12.4102M113.255 12.3838C113.358 12.4117 113.497 12.5406 113.564 12.6704L113.686 12.9066 114.062 12.619C114.492 12.2912 115.19 12.2074 115.399 12.4592 115.723 12.8498 115.513 13.9959 115.152 13.8028 114.773 13.5999 114.211 13.7891 113.828 14.2492 113.59 14.5363 113.517 15.0597 113.517 16.486 113.517 18.1315 113.517 18.13 112.762 18.13 111.921 18.13 111.965 18.2883 111.965 15.2238 111.965 12.2069 111.936 12.3309 112.645 12.3328 112.877 12.3333 113.152 12.3563 113.255 12.3838M120.578 12.6993C122.007 13.6558 122.231 16.1979 120.992 17.3906 119.728 18.6077 117.088 18.3672 116.265 16.9594 114.921 14.6613 116.325 12.2833 118.988 12.3465L120.091 12.3725 120.578 12.6993M124.287 12.5401 124.534 12.7483 124.992 12.5318C125.748 12.1741 126.626 12.2505 127.257 12.7297L127.727 13.0864 128.196 12.7292 128.666 12.3725 129.53 12.3725C131.212 12.3725 131.43 12.7503 131.471 15.7461 131.505 18.18 131.52 18.13 130.746 18.13 130.107 18.13 130.119 18.1648 130.078 16.17 130.029 13.8214 129.799 13.3118 128.881 13.5132 128.147 13.6749 127.936 14.2654 127.904 16.2509 127.874 18.1702 127.889 18.13 127.213 18.13 126.407 18.13 126.421 18.1638 126.416 16.1372 126.41 13.9547 126.234 13.475 125.44 13.475 124.596 13.475 124.348 14.0723 124.297 16.2342 124.25 18.2118 124.284 18.1266 123.547 18.1285 122.79 18.131 122.827 18.279 122.827 15.2003 122.827 13.2305 122.852 12.5019 122.925 12.4298 123.119 12.2353 124.011 12.3078 124.287 12.5401M143.58 12.4146C144.245 12.5994 144.897 13.4103 145.047 14.2399 145.302 15.6423 145.434 15.5472 143.148 15.5982L141.324 15.6393 141.298 15.8701C141.243 16.3454 141.827 16.8878 142.573 17.0554 142.953 17.1407 143.187 17.0981 143.985 16.7987 144.609 16.5645 144.713 16.6247 144.713 17.2235 144.713 18.4941 141.3 18.5151 140.333 17.2509 138.515 14.8744 140.703 11.6154 143.58 12.4146M147.472 12.5313C147.647 12.7537 147.836 12.742 148.266 12.4808 148.809 12.151 150.087 12.3162 150.505 12.7704 150.764 13.0502 151.029 13.0418 151.407 12.7424 152.047 12.2353 153.236 12.1481 153.854 12.5636 154.605 13.0683 154.752 13.6661 154.756 16.2455 154.759 18.1418 154.764 18.13 153.98 18.13 153.285 18.13 153.306 18.1922 153.275 16.0882 153.243 13.9572 153.193 13.7773 152.573 13.5603 152.113 13.3995 151.746 13.5705 151.409 14.1027L151.165 14.4869 151.165 16.1592C151.165 18.1339 151.166 18.13 150.435 18.13 149.595 18.13 149.613 18.178 149.613 16.0054L149.613 14.135 149.289 13.794C148.988 13.4779 148.94 13.4564 148.632 13.4975 147.714 13.6205 147.552 14.0101 147.507 16.2107 147.487 17.1863 147.436 17.9698 147.389 18.0281 147.282 18.1609 146.332 18.1638 146.2 18.032 146.059 17.8919 146.059 12.57 146.2 12.4298 146.395 12.2343 147.295 12.3063 147.472 12.5313M157.487 12.5357C157.722 12.7895 157.804 12.7895 158.304 12.5357 158.72 12.3245 159.59 12.2569 160.23 12.3848 161.773 12.6935 162.306 15.8672 161.061 17.323 160.361 18.1403 159.08 18.4181 158.13 17.9585 157.567 17.6856 157.535 17.7547 157.535 19.2271 157.535 20.7505 157.53 20.7618 156.8 20.7275 156.024 20.6907 156.067 20.947 156.066 16.4415 156.065 12.0212 156.009 12.3318 156.81 12.3318 157.225 12.3318 157.326 12.3617 157.487 12.5357M169.468 12.5656C170.335 13.1149 170.438 13.4784 170.438 15.975 170.438 18.179 170.454 18.13 169.726 18.13 169.37 18.13 169.213 18.0869 169.012 17.9335L168.755 17.7375 168.351 17.933C167.062 18.5573 165.588 17.9551 165.48 16.7609 165.364 15.4654 166.158 14.8117 168.089 14.6128 168.874 14.5324 168.916 14.5064 168.858 14.1473 168.724 13.3221 167.933 13.1315 166.783 13.648 166.103 13.9532 165.947 13.892 165.947 13.3216 165.947 12.4181 168.404 11.8908 169.468 12.5656M179.566 12.5563C180.399 13.01 180.839 13.8547 180.793 14.9097 180.763 15.6099 180.854 15.5796 178.751 15.5903 176.918 15.5996 176.845 15.6261 177.084 16.1984 177.431 17.0295 178.456 17.2828 179.619 16.8261 180.373 16.5297 180.414 16.5517 180.382 17.2318L180.361 17.6807 179.917 17.9056C179.315 18.2109 177.516 18.2442 176.96 17.9609 175.018 16.9697 174.904 13.8876 176.766 12.6964 177.485 12.2368 178.854 12.1682 179.566 12.5563M29.5068 13.3657C29.1937 13.4314 28.6586 13.9782 28.6405 14.2507L28.6243 14.4957 29.7254 14.4957C30.7279 14.4957 30.8293 14.4824 30.8558 14.3462 30.9587 13.8106 30.1585 13.229 29.5068 13.3657M45.2755 13.475C44.8326 13.698 44.5871 13.9699 44.566 14.26L44.5493 14.4957 45.5293 14.5197C46.9327 14.5535 47.0503 14.4996 46.7284 13.9704 46.3751 13.3888 45.8214 13.2001 45.2755 13.475M58.4085 13.4853C58.0111 13.6823 57.6294 14.1296 57.6715 14.3492 57.697 14.482 57.8078 14.4957 58.8421 14.4957L59.9843 14.4957 59.9554 14.2918C59.8481 13.5377 59.0955 13.1452 58.4085 13.4853M142.038 13.4809C141.657 13.673 141.378 14.0042 141.345 14.3036L141.324 14.4957 142.42 14.5187C143.661 14.5447 143.711 14.5246 143.529 14.0713 143.274 13.4324 142.636 13.18 142.038 13.4809M177.808 13.4466C177.392 13.6519 177.042 14.0512 177.07 14.2904L177.094 14.4957 178.197 14.4957C179.465 14.4957 179.578 14.4153 179.131 13.8293 178.766 13.351 178.285 13.2114 177.808 13.4466M64.7608 13.6588C63.4731 14.3119 63.7122 16.5664 65.1176 17.0211 65.7698 17.2318 66.492 16.5561 66.6478 15.5898 66.9007 14.0189 65.956 13.0521 64.7608 13.6588M71.4175 13.573C70.1347 14.0194 70.0827 16.3351 71.3435 16.8619 72.5043 17.347 73.4143 16.634 73.4172 15.238 73.4196 13.8695 72.5783 13.1692 71.4175 13.573M89.8587 13.6338C88.7503 14.137 88.7312 16.2611 89.8302 16.8217 90.9533 17.395 92.072 16.588 92.0563 15.216 92.0411 13.8655 90.9994 13.1158 89.8587 13.6338M118.188 13.6122C117.014 14.0272 116.984 16.3317 118.144 16.8291 119.351 17.346 120.318 16.6463 120.312 15.2615 120.306 13.8405 119.441 13.1687 118.188 13.6122M158.383 13.5999C157.329 14.062 157.205 16.2611 158.202 16.8212 159.383 17.4852 160.579 16.2215 160.251 14.6564 160.05 13.7004 159.222 13.232 158.383 13.5999M34.9615 15.7559C34.0996 16.1014 34.2647 17.0711 35.184 17.0672 35.8391 17.0643 36.6055 16.294 36.4295 15.8162 36.3413 15.5766 35.4946 15.5423 34.9615 15.7559M167.446 15.7682C166.561 16.1083 166.788 17.0682 167.752 17.0682 168.407 17.0682 169.138 16.2308 168.889 15.7657 168.769 15.5413 168.033 15.5428 167.446 15.7682M2.04183 24.3726C2.04183 24.4373 2.08397 24.5167 2.13591 24.5485 2.19814 24.5867 2.2099 24.5676 2.1707 24.4922 2.13787 24.4289 2.16923 24.449 2.23979 24.5363 2.36621 24.6921 2.36817 24.6921 2.36817 24.5245 2.36817 24.4309 2.31035 24.3319 2.2393 24.3045 2.05751 24.2349 2.04183 24.2403 2.04183 24.3726M2.40296 25.0444C2.42795 25.2178 2.695 25.2639 2.695 25.0954 2.695 24.9925 2.67295 24.9885 2.57054 25.0733 2.46666 25.1595 2.4549 25.1546 2.49753 25.0424 2.52595 24.9684 2.51174 24.9082 2.46617 24.9082 2.42011 24.9082 2.39169 24.9694 2.40296 25.0444M3.33494 25.9602C3.39472 25.9979 3.43784 26.0607 3.43098 26.0994 3.42363 26.1386 3.45744 26.1832 3.50546 26.1993 3.55397 26.2155 3.59317 26.1964 3.59317 26.1567 3.59317 26.0567 3.4153 25.8882 3.31142 25.8896 3.26438 25.8901 3.27467 25.922 3.33494 25.9602M4.05818 26.1905C3.88815 26.2346 3.91118 26.3963 4.0915 26.4228 4.15961 26.4326 4.21841 26.3728 4.22478 26.287 4.23115 26.2023 4.22968 26.1376 4.22135 26.143 4.21253 26.1479 4.13952 26.1694 4.05818 26.1905" fill="#2CA34C" fill-rule="evenodd" transform="matrix(1.01786 0 0 1 149.25 28)"/></g></svg>